HIERARCHY
ROOT Hips
{
  OFFSET -31.5692 30.0904 122.763
  CHANNELS 6 Xposition Yposition Zposition Zrotation Xrotation Yrotation
  JOINT LeftUpLeg
  {
    OFFSET 8.64259 1.95398 -2.38835
    CHANNELS 3 Zrotation Xrotation Yrotation
    JOINT LeftLeg
    {
      OFFSET 43.7702 0 0
      CHANNELS 3 Zrotation Xrotation Yrotation
      JOINT LeftFoot
      {
        OFFSET 40.6238 0 0
        CHANNELS 3 Zrotation Xrotation Yrotation
        JOINT LeftToeBase
        {
          OFFSET 12.7242 0 0
          CHANNELS 3 Zrotation Xrotation Yrotation
          End Site
          {
            OFFSET 0 0 0
          }
        }
      }
    }
  }
  JOINT RightUpLeg
  {
    OFFSET -8.2249 1.95398 -2.59336
    CHANNELS 3 Zrotation Xrotation Yrotation
    JOINT RightLeg
    {
      OFFSET 43.5653 0 0
      CHANNELS 3 Zrotation Xrotation Yrotation
      JOINT RightFoot
      {
        OFFSET 40.6238 0 0
        CHANNELS 3 Zrotation Xrotation Yrotation
        JOINT RightToeBase
        {
          OFFSET 12.7242 0 0
          CHANNELS 3 Zrotation Xrotation Yrotation
          End Site
          {
            OFFSET 0 0 0
          }
        }
      }
    }
  }
  JOINT Spine
  {
    OFFSET 0.165834 0.87714 6.61349
    CHANNELS 3 Zrotation Xrotation Yrotation
    JOINT Spine1
    {
      OFFSET 7.38963 1.71661e-005 0
      CHANNELS 3 Zrotation Xrotation Yrotation
      JOINT Spine2
      {
        OFFSET 11.9445 1.14441e-005 0
        CHANNELS 3 Zrotation Xrotation Yrotation
        JOINT Spine3
        {
          OFFSET 14.7254 4.19617e-005 0
          CHANNELS 3 Zrotation Xrotation Yrotation
          JOINT Spine4
          {
            OFFSET 10.9679 0 0
            CHANNELS 3 Zrotation Xrotation Yrotation
            JOINT RightShoulder
            {
              OFFSET 2.46616 -1.6653 3.69651
              CHANNELS 3 Zrotation Xrotation Yrotation
              JOINT RightArm
              {
                OFFSET 13.0012 0 0
                CHANNELS 3 Zrotation Xrotation Yrotation
                JOINT RightForeArm
                {
                  OFFSET 28.7848 1.62311e-005 0
                  CHANNELS 3 Zrotation Xrotation Yrotation
                  JOINT RightHand
                  {
                    OFFSET 26.5688 1.62095e-005 0
                    CHANNELS 3 Zrotation Xrotation Yrotation
                    End Site
                    {
                      OFFSET 0 0 0
                    }
                  }
                }
              }
            }
            JOINT LeftShoulder
            {
              OFFSET 2.38034 -1.29275 -3.7523
              CHANNELS 3 Zrotation Xrotation Yrotation
              JOINT LeftArm
              {
                OFFSET 16.3182 6.07031e-005 0
                CHANNELS 3 Zrotation Xrotation Yrotation
                JOINT LeftForeArm
                {
                  OFFSET 27.0901 0 0
                  CHANNELS 3 Zrotation Xrotation Yrotation
                  JOINT LeftHand
                  {
                    OFFSET 24.5451 1.51738e-005 0
                    CHANNELS 3 Zrotation Xrotation Yrotation
                    End Site
                    {
                      OFFSET 0 0 0
                    }
                  }
                }
              }
            }
            JOINT Neck
            {
              OFFSET 5.0226 -0.0266342 0
              CHANNELS 3 Zrotation Xrotation Yrotation
              JOINT Head
              {
                OFFSET 6.69364 2.86102e-005 0
                CHANNELS 3 Zrotation Xrotation Yrotation
                End Site
                {
                  OFFSET 0 0 0
                }
              }
            }
          }
        }
      }
    }
  }
}
MOTION
Frames:	13
Frame Time:	0.0416667
-297.603 92.276 306.144 103.369 38.6942 87.0293 -165.609 -16.9855 100.637 -40.6997 16.8915 3.68866 64.9549 2.77426 2.01992 21.6247 -4.70361 2.9903 177.266 16.6701 98.7533 -32.1784 -6.80804 1.18919 65.272 -1.60584 2.04412 19.4312 4.00805 1.42156 -0.417665 7.81143 -90.6511 11.2439 -1.13416 -1.18432 -0.427095 -1.18518 -1.13327 -22.9598 -0.725829 -1.47039 -2.94719 -0.725828 -1.47039 92.3852 -28.7082 -102.414 44.1981 -1.37996 7.90516 6.79907 -6.95802 -5.40317 -20.1532 0.260133 -8.08237 -87.5134 -51.3238 82.6809 -19.8741 6.47518 -21.2446 -2.55394 19.2487 -0.00499724 1.12352 -0.182712 -26.9759 0.0668738 1.61529 -3.11011 -6.90737 2.00467 1.0982 
-290.263 93.7351 300.941 105.743 36.4428 86.116 -166.024 -4.85795 102.177 -58.3587 15.2438 2.81153 55.6807 -3.71417 0.268233 6.71748 -11.2482 0.0583757 177.534 7.63803 99.6033 -30.9172 -11.5235 0.571363 68.0165 -4.24659 -2.74498 22.9301 2.39773 1.35711 0.125425 8.12984 -90.6332 10.6119 -0.0414972 -1.25549 -1.05957 -0.0966896 -1.25246 -23.5904 0.337734 -1.20994 -3.5777 0.337739 -1.20994 92.2469 -28.8612 -102.646 42.9546 -2.46525 4.95765 6.68434 -10.3109 -7.98349 -20.1765 0.520526 -10.3565 -86.8398 -51.0632 83.6374 -23 7.29631 -13.9835 -2.79204 18.2122 -0.00496668 7.81285 -1.15396 -20.8529 3.25836 0.818167 -2.77894 -7.0745 1.21985 1.91178 
-285.307 94.8089 297.005 103.793 41.0461 85.7035 -171.251 10.6535 95.555 -65.3062 11.5917 3.33635 68.0215 4.53217 2.11381 8.75524 -10.7026 1.03178 176.323 3.48063 98.2802 -28.0364 -6.71538 0.837213 71.507 -5.73896 -0.166932 22.5183 2.28251 2.49305 0.218414 7.99838 -90.4844 10.8785 0.211018 -0.982835 -0.792829 0.167565 -0.991172 -23.3254 0.496614 -0.873993 -3.31276 0.496642 -0.873988 92.0953 -29.2439 -102.827 39.9283 -3.93293 1.08668 6.30419 -17.9425 -11.2277 -21.7803 0.334242 -10.4626 -86.6975 -50.814 83.8103 -24.4943 7.5211 -8.11019 -3.5019 19.0054 -0.00498988 6.64066 -0.480671 -16.8389 2.37274 -1.28486 -2.66045 -4.92325 -0.878514 2.8666 
-279.862 95.4043 291.418 102.638 40.8947 83.5013 -173.658 18.5946 89.0131 -51.2543 2.50513 0.878972 71.7986 6.96888 0.286476 11.2672 -12.2687 6.32641 174.511 -2.40206 94.4863 -25.6532 -7.03651 -0.185215 75.1576 -7.10173 1.99394 23.9433 1.80014 1.86218 0.748116 8.05509 -90.1221 10.7679 1.43343 -0.375471 -0.902377 1.41551 -0.438219 -23.4439 1.47998 0.0727859 -3.43125 1.47999 0.0727774 92.111 -28.922 -102.902 36.4623 -4.78776 -4.16702 5.4751 -19.185 -13.3504 -24.4953 0.381601 -10.3607 -86.6008 -49.6023 83.7648 -26.5495 6.6009 -1.5859 -2.9843 14.688 -0.00487726 4.80169 -0.42497 -17.7752 2.74125 -2.6469 -2.0889 -4.60978 -2.29393 2.82273 
-274.098 94.612 285.857 102.27 39.0263 81.8694 -175.078 18.8375 85.9043 -23.1279 -0.669282 -1.47567 62.0111 2.61186 -0.307159 16.1456 -8.96813 5.60374 172.828 -7.29695 91.3887 -26.2039 -10.1035 -1.34537 79.7207 -9.39203 2.5587 25.1515 1.93369 -0.940841 1.10063 8.19986 -89.9652 10.4769 2.20836 -0.126678 -1.19218 2.20066 -0.223811 -23.7418 2.14429 0.543197 -3.72915 2.1443 0.543197 91.9456 -27.3869 -103.771 32.6925 -5.5948 -10.2545 3.8632 -21.2461 -16.9464 -24.6424 -0.216832 -7.58506 -85.9765 -51.6805 85.0104 -25.5756 3.82541 5.62562 -2.2105 14.6554 -0.00487653 3.64899 -0.237236 -16.9305 3.88685 -2.11994 2.38357 -4.40546 -2.50813 0.937868 
-267.161 92.89 279.282 102.671 37.8743 81.2759 -177.482 18.7362 85.4486 -7.22156 -5.05688 -1.74786 61.425 2.35325 -2.28764 15.234 -9.48516 5.57117 170.107 -14.984 88.4118 -24.2428 -12.8853 -1.51207 82.4846 -11.753 1.48248 27.5113 0.676642 -0.356663 1.24955 8.32003 -89.9579 10.2368 2.50893 -0.130614 -1.43173 2.50074 -0.240989 -23.9855 2.43212 0.629922 -3.97287 2.43211 0.629909 91.2036 -27.5537 -105.25 27.6606 -5.37105 -15.2129 3.65903 -20.3343 -17.7715 -27.2398 0.214575 -9.26255 -85.9768 -53.6701 85.2855 -25.0428 2.21109 10.9665 -1.78428 8.3088 -0.00476792 2.90694 -0.298568 -15.9401 4.37829 -1.26562 4.30737 -3.28904 -2.01241 0.448176 
-259.343 91.6587 271.845 102.06 34.8904 81.0123 -176.268 20.7725 84.9023 -14.421 -3.5306 -2.40123 57.6289 -1.17159 -2.16184 12.7062 -10.8595 5.33369 165.776 -21.0935 82.8383 -23.0534 -20.1048 -2.31011 80.1408 -12.5163 -1.54862 32.7454 -1.7598 -0.751557 1.54676 8.31921 -89.8376 10.2392 3.15604 0.0517456 -1.42794 3.15524 -0.0873545 -23.9915 2.99446 0.998726 -3.97882 2.99445 0.998713 91.3955 -27.1356 -105.007 28.9134 -3.54291 -18.381 1.43196 -22.2164 -18.5423 -31.1303 0.00749776 -8.34637 -84.6994 -54.9324 87.2827 -24.3241 1.92288 10.5914 -1.33941 3.64894 -0.00472746 1.28442 -0.0597183 -11.8499 7.24549 -0.737003 4.7763 -4.53192 -1.6826 0.183091 
-251.255 92.406 264.107 100.548 33.1538 79.7123 -173.793 21.5182 82.5033 -27.007 -0.787617 -4.3437 61.5731 -0.154929 -0.238574 8.92591 -12.4578 4.18949 165.552 -18.9058 79.8176 -32.8829 -21.6587 -6.19401 68.2928 -4.58553 -2.74354 41.7912 -6.19347 3.99443 1.49726 8.1046 -89.4859 10.657 3.21855 0.727938 -1.01004 3.24746 0.585429 -23.57 2.85088 1.66226 -3.5574 2.85088 1.66226 91.085 -26.6866 -105.829 32.8133 -5.15981 -16.0101 0.642351 -23.464 -20.7154 -30.0345 0.359627 -10.1931 -84.9311 -54.409 86.89 -24.9185 2.24478 8.61987 -1.40132 0.0367204 -0.00471787 1.36457 -0.119747 -10.4022 7.55542 -0.287653 4.00969 -5.10053 -1.09957 -0.200804 
-244.298 93.9201 257.176 101.228 34.1749 77.0767 -173.733 14.7612 79.4584 -28.3101 0.484095 -4.92102 67.543 4.26722 1.41597 9.9841 -11.8914 4.29888 168.971 -7.42468 78.9253 -56.1675 -22.2224 -8.33535 57.3756 2.99616 0.492057 18.1898 3.91021 3.58358 1.02671 8.11581 -89.2156 10.6275 2.40573 1.34133 -1.04181 2.46243 1.23411 -23.5835 1.89146 2.00239 -3.57085 1.89145 2.00239 90.9035 -27.6066 -105.85 35.2286 -6.72609 -13.5397 1.05497 -26.6752 -20.7412 -26.4706 0.427438 -11.7511 -86.2991 -52.0092 84.5819 -25.9956 3.92452 2.25226 -2.36827 1.27169 -0.00471903 3.06852 -0.313834 -13.0108 6.4385 0.367307 1.85494 -5.08385 -0.0143133 0.977582 
-238.12 95.3688 251.762 101.464 34.2848 77.9469 -174.312 8.07938 79.4178 -26.6473 0.271502 -4.18882 71.5573 6.85983 1.33566 12.1553 -11.0846 5.15118 174.507 3.65955 83.5343 -66.9077 -18.8907 -7.95982 63.7852 -1.50222 -1.88392 24.4917 0.626874 5.6403 0.633977 8.08208 -89.4012 10.7007 1.53825 1.04873 -0.969679 1.58294 0.980002 -23.5061 1.15196 1.46254 -3.49341 1.15198 1.46254 90.5086 -28.2091 -106.429 36.98 -7.20031 -9.77757 2.99495 -27.9227 -18.2587 -27.4977 0.193944 -10.625 -86.1522 -52.0311 84.8014 -23.3412 5.51465 -7.78011 -2.77513 4.29372 -0.00473115 7.06785 -0.815139 -15.4302 4.00879 1.29677 0.946776 -5.21572 1.08782 1.54035 
-231.712 96.7534 246.122 102.346 34.6639 79.315 -175.434 -0.919252 81.2319 -21.6321 -0.261537 -2.35297 73.7991 8.02754 0.423809 16.1048 -9.43923 6.49826 178.457 12.432 87.282 -59.7833 -9.6736 -6.81701 69.936 -5.44564 -2.40314 23.4305 1.27316 4.87297 0.36643 8.14627 -89.6516 10.5845 0.890146 0.616715 -1.0862 0.916425 0.576936 -23.6222 0.663658 0.855726 -3.6095 0.66364 0.855719 90.4679 -29.023 -106.195 38.9305 -6.07355 -4.17724 4.04198 -24.8013 -16.6582 -25.4642 0.442328 -11.7114 -86.2678 -51.3098 84.5267 -20.0513 6.05223 -19.2314 -3.00261 7.83482 0.071652 9.22023 -1.17819 -17.4072 2.24392 1.5994 -1.82134 -5.8184 1.83439 1.86802 
-225.344 96.7359 241.809 101.756 38.437 82.1603 -174.207 -5.46652 84.418 -20.9483 4.41668 -0.863214 77.4591 9.67977 -0.310419 16.872 -8.91647 6.34675 179.897 17.941 92.3645 -41.0932 -7.07124 -4.26667 68.8426 -5.52228 -2.38878 22.4996 2.3117 2.39639 -0.233479 8.1262 -89.9488 10.6211 -0.441374 0.141121 -1.04981 -0.434736 0.160412 -23.5853 -0.4634 0.00194273 -3.57261 -0.463399 0.00194273 90.1336 -30.6278 -106.26 38.7476 -5.13857 0.0930467 5.60253 -23.8275 -13.8933 -23.6245 0.100708 -9.98673 -87.2584 -48.5874 82.5932 -17.6615 6.06676 -28.3414 -3.06762 8.87986 -0.975628 8.48823 -1.60334 -21.7488 1.35845 1.32361 -5.43359 -4.99083 2.0879 3.33025 
-218.406 95.5027 236.262 102.173 41.922 82.2366 -173.144 -12.1779 86.5122 -19.4682 6.89075 0.133498 82.4361 12.3226 -1.81248 19.695 -8.36714 8.70549 179.116 18.3556 92.6325 -17.3505 -8.62319 -1.5765 62.3188 -2.31621 1.29412 24.7657 0.875163 4.16072 -0.669463 8.21604 -90.0401 10.4426 -1.35187 0.0396361 -1.22768 -1.34883 0.0991019 -23.7682 -1.30129 -0.368562 -3.75553 -1.30128 -0.368565 90.2981 -31.9288 -105.466 38.8641 -3.98834 4.55336 6.83011 -23.0636 -11.4759 -24.0604 -0.154203 -8.36802 -88.4394 -46.5102 80.3822 -15.8462 4.24661 -36.4068 -2.14446 13.5421 -1.38477 14.1245 -2.96896 -24.3943 1.15695 0.615076 -8.2655 -4.44246 1.81117 4.4235 
